<?xml version="1.0" encoding="UTF-8" standalone="no"?>
<svg width="80px" height="80px" viewBox="0 0 80 80" version="1.1" xmlns="http://www.w3.org/2000/svg" xmlns:xlink="http://www.w3.org/1999/xlink" xmlns:sketch="http://www.bohemiancoding.com/sketch/ns">
    <!-- Generator: Sketch 3.0.4 (8054) - http://www.bohemiancoding.com/sketch -->
    <title>Artboard 2</title>
    <desc>Created with Sketch.</desc>
    <defs></defs>
    <g id="User-Profile" stroke="none" stroke-width="1" fill="none" fill-rule="evenodd" sketch:type="MSPage">
        <g id="Artboard-2" sketch:type="MSArtboardGroup" fill="#FFFFFF">
            <g id="Fill-2-+-Fill-4-+-Fill-5" sketch:type="MSLayerGroup" transform="translate(22.000000, 26.000000)">
                <path d="M33.6852663,5.42196655 L25.6334457,5.42196655 L24.2007015,2.08811385 C23.7494965,1.03773366 22.604648,0.275146484 21.4791609,0.275146484 L14.4286619,0.275146484 C13.2905478,0.275146484 12.1465411,1.05231631 11.7092258,2.12285489 L10.3602408,5.42196655 L2.53865262,5.42196655 C1.14589391,5.42196655 -0.0987079327,6.75842416 -0.0987079327,8.1772309 L-0.0987079327,25.3332978 C-0.0987079327,26.7525334 1.14589391,27.7248535 2.53865262,27.7248535 L33.6852663,27.7248535 C35.0776041,27.7248535 36.0987079,26.7525334 36.0987079,25.3332978 L36.0987079,8.1772309 C36.0987079,6.75842416 35.0776041,5.42196655 33.6852663,5.42196655 L33.6852663,5.42196655 Z M34.4151072,25.3332978 C34.4151072,25.8050896 34.1482565,26.0092468 33.6852663,26.0092468 L2.53865262,26.0092468 C2.07566242,26.0092468 1.58489281,25.8050896 1.58489281,25.3332978 L1.58489281,8.1772309 C1.58489281,7.70543906 2.07566242,7.13757324 2.53865262,7.13757324 L10.6409812,7.13757324 C11.1039714,7.13757324 11.628413,6.87208311 11.8064538,6.43674791 L13.2631893,2.82796924 C13.4412301,2.39263404 13.9656717,1.99075317 14.4286619,1.99075317 L21.4791609,1.99075317 C21.9421511,1.99075317 22.4729063,2.43509531 22.6585232,2.86742819 L24.1948089,6.39728896 C24.3808468,6.82962184 24.9116019,7.13757324 25.3745921,7.13757324 L33.6852663,7.13757324 C34.1482565,7.13757324 34.4151072,7.70543906 34.4151072,8.1772309 L34.4151072,25.3332978 L34.4151072,25.3332978 Z" id="Fill-2" sketch:type="MSShapeGroup"></path>
                <path d="M17.91582,8.96755371 C13.9703016,8.96755371 10.7605168,12.2383579 10.7605168,16.2588821 C10.7605168,20.2794064 13.9703016,23.5502106 17.91582,23.5502106 C21.8613383,23.5502106 25.0711231,20.2794064 25.0711231,16.2588821 C25.0711231,12.2383579 21.8613383,8.96755371 17.91582,8.96755371 L17.91582,8.96755371 Z M17.91582,21.8346039 C14.8988074,21.8346039 12.4441176,19.3332493 12.4441176,16.2588821 C12.4441176,13.184515 14.8988074,10.6831604 17.91582,10.6831604 C20.9328325,10.6831604 23.3875224,13.184515 23.3875224,16.2588821 C23.3875224,19.3332493 20.9328325,21.8346039 17.91582,21.8346039 L17.91582,21.8346039 Z" id="Fill-4" sketch:type="MSShapeGroup"></path>
                <path d="M30.2692404,9.88254395 C28.9926501,9.88254395 27.9542894,10.9410733 27.9542894,12.2415031 C27.9542894,13.541933 28.9926501,14.6004623 30.2692404,14.6004623 C31.5454097,14.6004623 32.5841914,13.541933 32.5841914,12.2415031 C32.5841914,10.9410733 31.5454097,9.88254395 30.2692404,9.88254395 L30.2692404,9.88254395 Z M30.2692404,13.3137573 C29.688819,13.3137573 29.2169899,12.8329585 29.2169899,12.2415031 C29.2169899,11.6500477 29.688819,11.169249 30.2692404,11.169249 C30.8492408,11.169249 31.3214908,11.6500477 31.3214908,12.2415031 C31.3214908,12.8329585 30.8492408,13.3137573 30.2692404,13.3137573 L30.2692404,13.3137573 Z" id="Fill-5" sketch:type="MSShapeGroup"></path>
            </g>
        </g>
    </g>
</svg>