<?xml version="1.0" encoding="UTF-8" standalone="no"?>
<svg width="46px" height="32px" viewBox="0 0 46 32" version="1.1" xmlns="http://www.w3.org/2000/svg" xmlns:xlink="http://www.w3.org/1999/xlink" xmlns:sketch="http://www.bohemiancoding.com/sketch/ns">
    <!-- Generator: Sketch 3.0.4 (8054) - http://www.bohemiancoding.com/sketch -->
    <title>Imported Layers</title>
    <desc>Created with Sketch.</desc>
    <defs></defs>
    <g id="User-Panel" stroke="none" stroke-width="1" fill="none" fill-rule="evenodd" sketch:type="MSPage">
        <path d="M44.9908161,7.50097093 C44.3448161,3.22997093 40.9548161,-0.175029075 36.3278161,0.00697092538 C30.8938161,0.115970925 26.4578161,5.53197093 23.6118161,9.64897093 C24.4218161,11.0009709 25.3268161,12.5319709 26.0628161,13.9999709 C27.9988161,11.0159709 32.0608161,4.94397093 36.2488161,4.94397093 C38.5418161,4.94397093 40.6468161,6.80197093 40.7338161,9.08797093 C40.8268161,11.5399709 39.2258161,13.4139709 37.3688161,14.8439709 L35.9068161,15.8309709 L37.3688161,16.8189709 C39.2258161,18.2489709 40.8268161,20.1229709 40.7338161,22.5749709 C40.6468161,24.8609709 38.5418161,26.7189709 36.2488161,26.7189709 C33.9188161,26.7189709 31.6278161,24.8389709 29.7198161,22.6569709 C24.4048161,16.1099709 18.6308161,0.203970925 8.78781608,0.00697092538 C4.16081608,-0.175029075 0.770816081,3.22997093 0.124816081,7.50097093 C-0.323183919,10.4599709 0.419816081,13.6159709 2.59681608,15.8309709 C0.419816081,18.0469709 -0.323183919,21.2029709 0.124816081,24.1619709 C0.770816081,28.4329709 4.16081608,31.8379709 8.78781608,31.6559709 C14.2218161,31.5469709 18.6578161,26.1309709 21.5038161,22.0139709 C20.6938161,20.6619709 19.7888161,19.1309709 19.0528161,17.6629709 C17.1168161,20.6469709 13.0548161,26.7189709 8.86681608,26.7189709 C6.57381608,26.7189709 4.46881608,24.8609709 4.38181608,22.5749709 C4.28881608,20.1229709 5.88981608,18.2489709 7.74681608,16.8189709 L9.20881608,15.8309709 L7.74681608,14.8439709 C5.88981608,13.4139709 4.28881608,11.5399709 4.38181608,9.08797093 C4.46881608,6.80197093 6.57381608,4.94397093 8.86681608,4.94397093 C11.1968161,4.94397093 13.4878161,6.82397093 15.3958161,9.00597093 C20.7108161,15.5529709 26.4848161,31.4589709 36.3278161,31.6559709 C40.9548161,31.8379709 44.3448161,28.4329709 44.9908161,24.1619709 C45.4388161,21.2029709 44.6958161,18.0469709 42.5198161,15.8309709 C44.6958161,13.6159709 45.4388161,10.4599709 44.9908161,7.50097093" id="Imported-Layers" fill="#FFFFFF" sketch:type="MSShapeGroup"></path>
    </g>
</svg>